<svg xmlns="http://www.w3.org/2000/svg" width="960" height="280" viewBox="0 0 960 280" role="img" aria-labelledby="title desc">
  <title id="title">Ayden — developer and author</title>
  <desc id="desc">A dark editorial banner with coral lettering and a diagram of connected software modules.</desc>
  <rect x="0.5" y="0.5" width="959" height="279" rx="12" fill="#161b22" stroke="#30363d"/>
  <path d="M640 0v280M0 226h960" stroke="#30363d" stroke-width="1"/>
  <text x="42" y="47" fill="#a9b5c2" font-family="Arial, Helvetica, sans-serif" font-size="16" letter-spacing="3">DEVELOPER / AUTHOR</text>
  <text x="36" y="160" fill="#efb298" font-family="Georgia, 'Times New Roman', serif" font-size="118" letter-spacing="-5">Ayden.</text>
  <text x="42" y="201" fill="#e6edf3" font-family="Arial, Helvetica, sans-serif" font-size="22">Thoughtful code. Shared knowledge.</text>
  <text x="42" y="259" fill="#a9b5c2" font-family="Arial, Helvetica, sans-serif" font-size="15" letter-spacing="2">TYPESCRIPT · REACT · DEVELOPER EXPERIENCE</text>
  <g fill="none" stroke="#8e9dac" stroke-width="1.5">
    <path d="M706 61h-16v110h16M888 61h16v110h-16"/>
    <rect x="740" y="49" width="108" height="42" rx="5"/>
    <rect x="714" y="137" width="64" height="42" rx="5"/>
    <rect x="810" y="137" width="64" height="42" rx="5"/>
    <path d="M794 91v23h-48v23m48-23h48v23"/>
    <path d="M759 65h70m-70 10h43M729 158h34m62 0h34" stroke="#a9b5c2"/>
  </g>
  <circle cx="794" cy="114" r="4" fill="#efb298"/>
  <text x="710" y="259" fill="#a9b5c2" font-family="Arial, Helvetica, sans-serif" font-size="15" letter-spacing="2">BUILD / SHARE</text>
</svg>
